<svg width="80" height="48" viewBox="0 0 80 48" fill="none" xmlns="http://www.w3.org/2000/svg">
<path d="M63.3515 39.603H56.4176C56.0078 39.603 55.6761 39.2709 55.6761 38.8611C55.6761 35.1319 52.604 32.0977 48.8283 32.0977C45.0524 32.0977 41.9808 35.1319 41.9808 38.8611C41.9808 39.2709 41.6486 39.603 41.2389 39.603H23.5096C23.1001 39.603 22.7679 39.2709 22.7679 38.8611C22.7679 35.1319 19.6961 32.0977 15.9202 32.0977C12.1445 32.0977 9.07267 35.1319 9.07267 38.8611C9.07267 39.2709 8.74049 39.603 8.33096 39.603H0.741711C0.332173 39.603 0 39.2709 0 38.8611V20.0895C0 17.4655 0.524152 14.9147 1.55792 12.508C2.05404 11.3527 2.66803 10.2379 3.38273 9.19407C4.09006 8.16091 4.90177 7.18895 5.79534 6.30479C6.68871 5.42104 7.67131 4.61834 8.71532 3.91899C9.76956 3.21269 10.896 2.60605 12.0628 2.11547C14.4926 1.09418 17.0672 0.576172 19.7153 0.576172H63.3515C63.7608 0.576172 64.0932 0.908344 64.0932 1.31788V38.8611C64.0932 39.2709 63.7608 39.603 63.3515 39.603ZM57.1263 38.1196H62.6098V2.0596H19.7153C9.66231 2.0596 1.48342 10.1478 1.48342 20.0895V38.1196H7.6224C7.69895 37.2668 7.9075 36.4379 8.24541 35.6472C8.66559 34.6646 9.26669 33.7829 10.0321 33.0259C10.797 32.2694 11.6879 31.6759 12.6799 31.261C13.7067 30.8318 14.797 30.6143 15.9204 30.6143C17.044 30.6143 18.1343 30.8318 19.1611 31.261C20.1533 31.6759 21.044 32.2694 21.8089 33.0259C22.5743 33.7827 23.1756 34.6646 23.5956 35.6472C23.9337 36.4379 24.1423 37.2668 24.2186 38.1196H40.5303C40.6069 37.2668 40.8156 36.4379 41.1535 35.6472C41.5737 34.6646 42.1746 33.7829 42.9401 33.0259C43.7047 32.2694 44.5958 31.6759 45.5879 31.261C46.6147 30.8318 47.7049 30.6143 48.8285 30.6143C49.9509 30.6143 51.0406 30.8318 52.067 31.261C53.0588 31.6759 53.9495 32.2694 54.7148 33.0257C55.4806 33.7827 56.0823 34.6646 56.5027 35.647C56.8408 36.4377 57.0498 37.2668 57.1263 38.1196Z" fill="#303E54"/>
<path d="M17.8154 22.709H0.741711C0.332173 22.709 0 22.3768 0 21.9673V20.0895C0 15.2399 1.82931 10.5821 5.15126 6.97402C8.44823 3.39317 12.9196 1.15617 17.7417 0.675199C17.9501 0.654323 18.1578 0.72268 18.3132 0.863286C18.4685 1.00389 18.5571 1.20365 18.5571 1.41323V21.9673C18.5573 22.3768 18.2249 22.709 17.8154 22.709ZM1.48342 21.2254H17.0737V2.25113C8.2671 3.53828 1.48342 11.2198 1.48342 20.0891V21.2254Z" fill="#303E54"/>
<path d="M57.6621 18.9543H48.1733C47.7634 18.9543 47.4314 18.6224 47.4314 18.2126V6.95167C47.4314 6.54213 47.7634 6.20996 48.1733 6.20996H57.6621C58.0718 6.20996 58.404 6.54213 58.404 6.95167V18.2126C58.404 18.6224 58.0718 18.9543 57.6621 18.9543ZM48.9148 17.4709H56.9206V7.69338H48.9148V17.4709Z" fill="#E63046"/>
<path d="M44.3777 18.9543H34.8941C34.4845 18.9543 34.1523 18.6224 34.1523 18.2126V6.95167C34.1523 6.54213 34.4845 6.20996 34.8941 6.20996H44.3777C44.7874 6.20996 45.1196 6.54213 45.1196 6.95167V18.2126C45.1196 18.6224 44.7874 18.9543 44.3777 18.9543ZM35.6358 17.4709H43.6362V7.69338H35.6358V17.4709Z" fill="#E63046"/>
<path d="M31.0997 18.9543H21.6099C21.2001 18.9543 20.8682 18.6224 20.8682 18.2126V6.95167C20.8682 6.54213 21.2001 6.20996 21.6099 6.20996H31.0997C31.5092 6.20996 31.8414 6.54213 31.8414 6.95167V18.2126C31.8414 18.6224 31.5092 18.9543 31.0997 18.9543ZM22.3516 17.4709H30.3579V7.69338H22.3516V17.4709Z" fill="#E63046"/>
<path d="M48.8285 47.1134C47.7049 47.1134 46.6146 46.8954 45.5876 46.4656C44.5954 46.0503 43.7047 45.4558 42.9398 44.6989C42.1746 43.9412 41.5731 43.0585 41.1531 42.0757C40.7182 41.0569 40.4976 39.9754 40.4976 38.8606C40.4976 37.7462 40.7182 36.6647 41.1535 35.6467C41.5737 34.6641 42.1746 33.7824 42.94 33.0254C43.7047 32.2689 44.5958 31.6754 45.5878 31.2605C46.6146 30.8313 47.7049 30.6138 48.8285 30.6138C49.9509 30.6138 51.0406 30.8313 52.067 31.2605C53.0588 31.6754 53.9495 32.2689 54.7147 33.0251C55.4806 33.7822 56.0823 34.6641 56.5027 35.6465C56.9386 36.6647 57.1597 37.7462 57.1597 38.8606C57.1597 39.9754 56.9386 41.0569 56.5027 42.0757C56.0821 43.0587 55.481 43.9412 54.7151 44.6989C53.9501 45.4558 53.0592 46.0503 52.0674 46.4656C51.0408 46.8954 49.9509 47.1134 48.8285 47.1134ZM48.8285 32.0972C45.0526 32.0972 41.981 35.1314 41.981 38.8606C41.981 42.5933 45.0526 45.63 48.8285 45.63C52.6042 45.63 55.6762 42.5933 55.6762 38.8606C55.6762 35.1314 52.6042 32.0972 48.8285 32.0972Z" fill="#303E54"/>
<path d="M15.9206 47.1134C14.7971 47.1134 13.7067 46.8954 12.6799 46.4656C11.6878 46.0503 10.7971 45.4558 10.0321 44.6989C9.26664 43.9412 8.66574 43.0585 8.24556 42.0757C7.81023 41.0569 7.5896 39.9754 7.5896 38.8606C7.5896 37.7462 7.81023 36.6647 8.24556 35.6467C8.66574 34.6641 9.26684 33.7824 10.0323 33.0254C10.7971 32.2689 11.688 31.6754 12.6801 31.2605C13.7069 30.8313 14.7971 30.6138 15.9206 30.6138C17.0442 30.6138 18.1344 30.8313 19.1612 31.2605C20.1535 31.6754 21.0442 32.2689 21.809 33.0254C22.5745 33.7822 23.1758 34.6641 23.5958 35.6467C24.0309 36.6647 24.2517 37.7462 24.2517 38.8606C24.2517 39.9754 24.0309 41.0569 23.5958 42.0757C23.1758 43.0587 22.5747 43.9412 21.8094 44.6989C21.0444 45.4558 20.1537 46.0503 19.1617 46.4656C18.1346 46.8954 17.0444 47.1134 15.9206 47.1134ZM15.9206 32.0972C12.1449 32.0972 9.07302 35.1314 9.07302 38.8606C9.07302 42.5933 12.1449 45.63 15.9206 45.63C19.6965 45.63 22.7683 42.5933 22.7683 38.8606C22.7681 35.1314 19.6965 32.0972 15.9206 32.0972Z" fill="#303E54"/>
<path d="M15.9202 43.2239C13.4963 43.2239 11.5242 41.2667 11.5242 38.8613C11.5242 37.6969 11.9826 36.6026 12.8154 35.7804C13.6451 34.9611 14.7479 34.5103 15.9204 34.5103C17.0929 34.5103 18.1957 34.9611 19.0256 35.7804C19.8584 36.6026 20.3173 37.6967 20.3173 38.8613C20.3169 41.2669 18.3445 43.2239 15.9202 43.2239ZM15.9202 35.9937C14.3142 35.9937 13.0076 37.2798 13.0076 38.8613C13.0076 40.4489 14.3142 41.7405 15.9202 41.7405C17.5266 41.7405 18.8336 40.4487 18.8336 38.8613C18.8336 37.2798 17.5266 35.9937 15.9202 35.9937Z" fill="#E63046"/>
<path d="M48.8279 43.2239C46.404 43.2239 44.4319 41.2667 44.4319 38.8613C44.4319 36.4622 46.4043 34.5103 48.8279 34.5103C50.0004 34.5103 51.1022 34.9615 51.9307 35.7812C52.7612 36.6028 53.2186 37.6967 53.2186 38.8613C53.2186 41.2669 51.2487 43.2239 48.8279 43.2239ZM48.8279 35.9937C47.2217 35.9937 45.9153 37.2798 45.9153 38.8613C45.9153 40.4489 47.2219 41.7405 48.8279 41.7405C50.4311 41.7405 51.7352 40.4487 51.7352 38.8613C51.7352 37.2798 50.4311 35.9937 48.8279 35.9937Z" fill="#E63046"/>
<path opacity="0.4" d="M8.33134 13.3261C8.14019 13.3261 7.94944 13.2526 7.80453 13.1065C7.51616 12.8156 7.5182 12.3459 7.80924 12.0576L11.5986 8.30214C11.8895 8.01376 12.359 8.01601 12.6476 8.30685C12.9359 8.59788 12.9337 9.06739 12.6429 9.35576L8.85345 13.1112C8.70875 13.2545 8.51984 13.3261 8.33134 13.3261Z" fill="#303E54"/>
<path opacity="0.4" d="M8.33134 17.0805C8.14019 17.0805 7.94944 17.0072 7.80453 16.8609C7.51616 16.57 7.5182 16.1005 7.80924 15.812L11.5986 12.0567C11.8895 11.7684 12.359 11.7704 12.6476 12.0614C12.9359 12.3523 12.9337 12.822 12.6429 13.1104L8.85345 16.8658C8.70875 17.0088 8.51984 17.0805 8.33134 17.0805Z" fill="#303E54"/>
<g opacity="0.4">
<path d="M68.4684 13.3252H60.8792C60.4695 13.3252 60.1377 12.993 60.1377 12.5835C60.1377 12.1738 60.4695 11.8418 60.8792 11.8418H68.4684C68.8782 11.8418 69.2104 12.1738 69.2104 12.5835C69.2104 12.9932 68.8782 13.3252 68.4684 13.3252Z" fill="#303E54"/>
</g>
<g opacity="0.4">
<path d="M70.9576 17.0813H60.8792C60.4695 17.0813 60.1377 16.7492 60.1377 16.3396C60.1377 15.9301 60.4695 15.5979 60.8792 15.5979H70.9576C71.3673 15.5979 71.6995 15.9301 71.6995 16.3396C71.6995 16.7494 71.3673 17.0813 70.9576 17.0813Z" fill="#303E54"/>
</g>
<g opacity="0.4">
<path d="M72.6219 20.8306H60.8792C60.4695 20.8306 60.1377 20.4986 60.1377 20.0889C60.1377 19.6793 60.4695 19.3472 60.8792 19.3472H72.6219C73.0317 19.3472 73.3637 19.6793 73.3637 20.0889C73.3637 20.4986 73.0317 20.8306 72.6219 20.8306Z" fill="#303E54"/>
</g>
<g opacity="0.4">
<path d="M74.2757 24.5876H60.8792C60.4695 24.5876 60.1377 24.2555 60.1377 23.8457C60.1377 23.4362 60.4695 23.104 60.8792 23.104H74.2757C74.6854 23.104 75.0176 23.4362 75.0176 23.8457C75.0176 24.2555 74.6854 24.5876 74.2757 24.5876Z" fill="#303E54"/>
</g>
<g opacity="0.4">
<path d="M76.7701 28.3419H60.8792C60.4695 28.3419 60.1377 28.01 60.1377 27.6004C60.1377 27.1907 60.4695 26.8585 60.8792 26.8585H76.7701C77.1799 26.8585 77.5116 27.1907 77.5116 27.6004C77.5118 28.01 77.1799 28.3419 76.7701 28.3419Z" fill="#303E54"/>
</g>
<g opacity="0.4">
<path d="M79.2587 32.0972H60.8792C60.4695 32.0972 60.1377 31.7652 60.1377 31.3555C60.1377 30.9459 60.4695 30.6138 60.8792 30.6138H79.2587C79.6684 30.6138 80.0002 30.9459 80.0002 31.3555C80.0002 31.7652 79.6684 32.0972 79.2587 32.0972Z" fill="#303E54"/>
</g>
</svg>
