<svg width="78" height="81" viewBox="0 0 78 81" fill="none" xmlns="http://www.w3.org/2000/svg">
<path d="M57.843 75.0514C57.8425 75.0514 57.8425 75.0514 57.8425 75.0514H8.68841C8.27447 75.0514 7.93872 74.7158 7.93872 74.3017V6.53997C7.93872 6.12603 8.27447 5.79028 8.68841 5.79028H62.9483C63.362 5.79028 63.6977 6.12603 63.6977 6.53997V56.5292C63.6977 56.8613 63.4793 57.1538 63.1609 57.2483C58.833 58.5311 55.8107 62.5572 55.8107 67.0392C55.8107 69.5274 56.7257 71.9231 58.3879 73.787C58.5149 73.9211 58.5924 74.1023 58.5924 74.3015C58.5924 74.715 58.2575 75.0503 57.8442 75.0512C57.8438 75.0514 57.8432 75.0514 57.843 75.0514ZM9.4381 73.552H56.3072C55.8214 72.8356 55.4183 72.0692 55.1026 71.2609C54.5773 69.9165 54.3113 68.4959 54.3113 67.0394C54.3113 65.7421 54.5233 64.4668 54.9425 63.25C55.3477 62.0733 55.9377 60.9721 56.6967 59.9767C57.4468 58.9926 58.3438 58.1354 59.3626 57.4289C60.2414 56.8199 61.1934 56.335 62.1984 55.9841V7.28966H9.4381V73.552Z" fill="#303E54"/>
<path opacity="0.4" d="M18.4776 80.8415C18.147 80.8415 17.8445 80.6212 17.7543 80.2869L16.1902 74.4969C16.1294 74.2716 16.177 74.031 16.3189 73.8459C16.4608 73.6607 16.6809 73.5519 16.914 73.5519H40.3247C40.7012 73.5519 41.0196 73.8314 41.0682 74.2046C41.1168 74.5782 40.881 74.9299 40.5169 75.0263L18.6699 80.8163C18.6056 80.8333 18.5409 80.8415 18.4776 80.8415ZM17.8929 75.0513L19.0069 79.1758L34.5696 75.0513H17.8929ZM62.9484 57.2793C62.7891 57.2793 62.6321 57.2286 62.5011 57.1311C62.3106 56.9896 62.1985 56.7666 62.1985 56.5294V36.8831C62.1985 36.5072 62.4767 36.1895 62.8493 36.14C63.2219 36.0906 63.5736 36.3246 63.6718 36.6874L68.9083 56.0472C68.9757 56.2962 68.9103 56.5623 68.7353 56.7515C68.5603 56.941 68.3001 57.0273 68.0467 56.9799C67.4316 56.8641 66.7939 56.8055 66.1513 56.8055C65.14 56.8055 64.135 56.9543 63.1646 57.247C63.0936 57.2687 63.0206 57.2793 62.9484 57.2793ZM63.6979 42.5256V55.5635C64.5038 55.3926 65.3259 55.3059 66.1513 55.3059C66.4914 55.3059 66.8305 55.3204 67.1666 55.3492L63.6979 42.5256ZM8.68793 44.7042C8.35405 44.7042 8.0545 44.481 7.96513 44.1506L0.0261577 14.8343C-0.0261799 14.6415 0.000713055 14.436 0.10063 14.2631C0.200548 14.0902 0.365214 13.9644 0.558222 13.9133L8.4972 11.8161C8.72206 11.7567 8.96182 11.8051 9.14614 11.947C9.33046 12.0889 9.43845 12.3084 9.43845 12.5411V43.9547C9.43845 44.3301 9.16021 44.6483 8.78764 44.6978C8.75413 44.7023 8.72082 44.7042 8.68793 44.7042ZM1.67055 15.1704L7.93886 38.3181V13.5145L1.67055 15.1704ZM54.7229 7.28958H54.7225H31.3116C30.9351 7.28958 30.617 7.01011 30.5682 6.63671C30.5193 6.26331 30.7554 5.91184 31.1197 5.81523L52.9666 0.0252024C53.3652 -0.0805072 53.7746 0.155943 53.8824 0.554371L55.4389 6.31668C55.4604 6.38722 55.4724 6.46211 55.4724 6.53989C55.4724 6.95404 55.1368 7.28958 54.7229 7.28958ZM37.0663 5.7902H53.7434L52.6294 1.66567L37.0663 5.7902Z" fill="#303E54"/>
<path d="M50.5171 17.1434H21.1212C20.7072 17.1434 20.3715 16.8077 20.3715 16.3937C20.3715 15.9798 20.7072 15.644 21.1212 15.644H50.5171C50.9308 15.644 51.2666 15.9798 51.2666 16.3937C51.2666 16.8077 50.9308 17.1434 50.5171 17.1434Z" fill="#303E54"/>
<path d="M54.6668 20.9471H16.9697C16.5557 20.9471 16.22 20.6116 16.22 20.1974C16.22 19.7835 16.5557 19.4478 16.9697 19.4478H54.6668C55.081 19.4478 55.4167 19.7835 55.4167 20.1974C55.4167 20.6116 55.081 20.9471 54.6668 20.9471Z" fill="#303E54"/>
<path d="M54.6668 24.1864H16.9697C16.5557 24.1864 16.22 23.8506 16.22 23.4367C16.22 23.0225 16.5557 22.6868 16.9697 22.6868H54.6668C55.081 22.6868 55.4167 23.0225 55.4167 23.4367C55.4167 23.8506 55.081 24.1864 54.6668 24.1864Z" fill="#303E54"/>
<path d="M50.5171 38.4086H21.1212C20.7072 38.4086 20.3715 38.073 20.3715 37.6589C20.3715 37.2449 20.7072 36.9092 21.1212 36.9092H50.5171C50.9308 36.9092 51.2666 37.2449 51.2666 37.6589C51.2666 38.073 50.9308 38.4086 50.5171 38.4086Z" fill="#303E54"/>
<path d="M54.6668 42.2131H16.9697C16.5557 42.2131 16.22 41.8774 16.22 41.4632C16.22 41.0491 16.5557 40.7137 16.9697 40.7137H54.6668C55.081 40.7137 55.4167 41.0491 55.4167 41.4632C55.4167 41.8774 55.081 42.2131 54.6668 42.2131Z" fill="#303E54"/>
<path d="M54.6668 45.4529H16.9697C16.5557 45.4529 16.22 45.1171 16.22 44.703C16.22 44.289 16.5557 43.9535 16.9697 43.9535H54.6668C55.081 43.9535 55.4167 44.289 55.4167 44.703C55.4167 45.1171 55.081 45.4529 54.6668 45.4529Z" fill="#303E54"/>
<path d="M31.6747 59.6354H16.9827C16.5686 59.6354 16.233 59.2998 16.233 58.8859C16.233 58.4717 16.5686 58.136 16.9827 58.136H31.6747C32.0886 58.136 32.4244 58.4717 32.4244 58.8859C32.4244 59.2996 32.0889 59.6354 31.6747 59.6354Z" fill="#303E54"/>
<path d="M47.4327 63.443H16.9827C16.5686 63.443 16.233 63.1074 16.233 62.6933C16.233 62.2793 16.5686 61.9436 16.9827 61.9436H47.4327C47.8468 61.9436 48.1826 62.2793 48.1826 62.6933C48.1826 63.1074 47.8468 63.443 47.4327 63.443Z" fill="#303E54"/>
<path d="M47.4242 66.6835H16.9697C16.5557 66.6835 16.22 66.3477 16.22 65.9336C16.22 65.5196 16.5557 65.1841 16.9697 65.1841H47.424C47.8381 65.1841 48.1739 65.5196 48.1739 65.9336C48.1741 66.3477 47.8383 66.6835 47.4242 66.6835Z" fill="#303E54"/>
<path d="M66.1517 78.7595C64.5538 78.7595 63.0035 78.4501 61.5443 77.8394C60.1345 77.2496 58.868 76.4054 57.7814 75.3301C56.6936 74.254 55.8399 73.0005 55.2433 71.6044C54.6254 70.1584 54.3118 68.622 54.3118 67.0388C54.3118 65.4536 54.625 63.9155 55.2429 62.4679C55.8395 61.0705 56.6936 59.8158 57.7809 58.7386C58.868 57.6623 60.1341 56.817 61.5441 56.2266C63.0037 55.6158 64.5538 55.3057 66.1517 55.3057C67.7505 55.3057 69.3018 55.6156 70.7623 56.2266C72.1732 56.817 73.44 57.6621 74.528 58.7384C75.6163 59.8154 76.4711 61.07 77.0679 62.4679C77.6864 63.9155 78 65.4536 78 67.0388C78 68.622 77.6864 70.1584 77.0679 71.6044C76.4706 73.0007 75.6159 74.2542 74.5277 75.3301C73.44 76.4054 72.1728 77.25 70.7623 77.8398C69.3018 78.4501 67.7505 78.7595 66.1517 78.7595ZM66.1517 56.805C60.4497 56.805 55.8111 61.3959 55.8111 67.0388C55.8111 72.6749 60.4497 77.2602 66.1517 77.2602C71.8581 77.2602 76.5006 72.6749 76.5006 67.0388C76.5006 61.3959 71.8581 56.805 66.1517 56.805Z" fill="#FF2D46"/>
<path d="M66.1518 75.1744C65.7377 75.1744 65.4023 74.839 65.4023 74.4249V60.8792C65.4023 60.465 65.7377 60.1293 66.1518 60.1293C66.566 60.1293 66.9013 60.465 66.9013 60.8792V74.4249C66.9013 74.839 66.566 75.1744 66.1518 75.1744Z" fill="#FF2D46"/>
<path d="M60.5852 66.5354C60.3777 66.5354 60.1708 66.4491 60.0225 66.2811C59.7488 65.9706 59.7788 65.4967 60.0893 65.223L65.6561 60.3167C65.9666 60.0428 66.4406 60.0726 66.7143 60.3831C66.9882 60.6938 66.9584 61.1673 66.6474 61.4414L61.0808 66.3477C60.9381 66.4735 60.7614 66.5354 60.5852 66.5354Z" fill="#FF2D46"/>
<path d="M71.7227 66.5352C71.5469 66.5352 71.37 66.4733 71.2275 66.3482L65.6559 61.4415C65.3456 61.1678 65.3154 60.6943 65.5889 60.3834C65.8626 60.0726 66.3365 60.0429 66.6472 60.3163L72.2184 65.223C72.5291 65.4967 72.5593 65.9702 72.2854 66.2812C72.1375 66.4489 71.9306 66.5352 71.7227 66.5352Z" fill="#FF2D46"/>
</svg>
