<svg width="95" height="73" viewBox="0 0 95 73" fill="none" xmlns="http://www.w3.org/2000/svg">
<path opacity="0.4" d="M45.6927 1V0.5H45.1927H14.2718H13.7718V1V21.9904C13.7718 38.1289 8.02705 49.8772 1.57778 60.0444L1.30084 60.481L1.74646 60.7432L19.9125 71.4309L20.2159 71.6095L20.4863 71.384C34.1979 59.9497 45.6927 39.5983 45.6927 21.7978V1ZM94.2 1V0.5H93.7H62.779H62.279V1V21.9904C62.279 38.1289 56.5343 49.8772 50.085 60.0444L49.8081 60.481L50.2537 60.7432L68.4198 71.4309L68.7232 71.6095L68.9936 71.384C82.7051 59.9497 94.2 39.5983 94.2 21.7978V1Z" stroke="white"/>
</svg>
