<svg width="14" height="14" viewBox="0 0 14 14" fill="none" xmlns="http://www.w3.org/2000/svg">
<path d="M12.2647 7.72229C12.1102 7.72229 11.9486 7.67297 11.7941 7.63775C11.4811 7.56857 11.1735 7.47674 10.8738 7.36296C10.5478 7.24405 10.1896 7.25023 9.86796 7.3803C9.54632 7.51037 9.28401 7.75515 9.1315 8.06753L8.97694 8.38459C8.29269 8.00284 7.66392 7.5287 7.10824 6.97545C6.55659 6.41815 6.08383 5.78755 5.70319 5.1013L5.99825 4.90402C6.30973 4.75107 6.55379 4.48799 6.68349 4.16541C6.81318 3.84284 6.81934 3.48355 6.70077 3.15669C6.58923 2.85543 6.4977 2.5471 6.42679 2.23371C6.39166 2.0787 6.36356 1.91665 6.34249 1.7546C6.25718 1.25831 5.99799 0.808886 5.6116 0.487249C5.22521 0.165612 4.73701 -0.00709771 4.23492 0.000223562H2.12735C1.82459 -0.0026275 1.52477 0.0599804 1.2483 0.183785C0.971824 0.30759 0.725198 0.489684 0.525204 0.717673C0.32521 0.945661 0.176545 1.21419 0.0893294 1.50498C0.00211367 1.79577 -0.021605 2.10199 0.0197881 2.4028C0.394048 5.35451 1.73818 8.09704 3.83986 10.1972C5.94154 12.2973 8.68098 13.6354 11.6255 14H11.8924C12.4105 14.0008 12.9106 13.8101 13.2975 13.4645C13.5197 13.2652 13.6972 13.0208 13.8184 12.7475C13.9395 12.4742 14.0014 12.1783 14 11.8792V9.76554C13.9914 9.27614 13.8137 8.8049 13.4972 8.43226C13.1807 8.05963 12.7451 7.80869 12.2647 7.72229ZM12.616 11.9497C12.6159 12.0497 12.5945 12.1486 12.5533 12.2397C12.5121 12.3308 12.4521 12.4121 12.3772 12.4781C12.2987 12.5461 12.2069 12.5969 12.1077 12.6272C12.0085 12.6575 11.904 12.6668 11.8011 12.6543C9.17007 12.3159 6.72623 11.1088 4.85505 9.22323C2.98387 7.33767 1.79184 4.88101 1.46698 2.24075C1.4558 2.13754 1.4656 2.03314 1.49579 1.93383C1.52598 1.83453 1.57592 1.7424 1.64261 1.66301C1.70845 1.58785 1.78948 1.52762 1.88033 1.48631C1.97118 1.44501 2.06976 1.42358 2.16951 1.42345H4.27707C4.44044 1.41981 4.59997 1.47339 4.72819 1.57498C4.85642 1.67658 4.94532 1.81982 4.97959 1.98006C5.00769 2.17264 5.04282 2.36288 5.08497 2.55076C5.16613 2.92217 5.27413 3.28716 5.40813 3.64284L4.4246 4.10081C4.34051 4.13951 4.26486 4.19448 4.20201 4.26258C4.13916 4.33067 4.09034 4.41055 4.05836 4.49762C4.02637 4.58469 4.01185 4.67724 4.01563 4.76996C4.0194 4.86267 4.0414 4.95372 4.08037 5.03789C5.09144 7.2099 6.83232 8.95585 8.99802 9.96987C9.16906 10.0403 9.3609 10.0403 9.53194 9.96987C9.61955 9.93844 9.70006 9.88986 9.76881 9.82697C9.83755 9.76408 9.89315 9.68811 9.93237 9.60349L10.3679 8.61709C10.7311 8.74735 11.1018 8.85558 11.4779 8.9412C11.6653 8.98347 11.8549 9.0187 12.047 9.04688C12.2067 9.08126 12.3496 9.17042 12.4509 9.29902C12.5522 9.42761 12.6056 9.58761 12.602 9.75145L12.616 11.9497Z" fill="#C00D2C"/>
</svg>
