<svg width="36" height="36" viewBox="0 0 36 36" fill="none" xmlns="http://www.w3.org/2000/svg">
<path d="M27.3655 19.479C26.7673 24.4146 23.241 24.7264 22.5913 24.94C22.3442 25.0211 19.2246 25.5603 16.2588 25.5216C15.5945 25.5129 14.9529 25.7947 14.545 26.3192L13.5631 27.5817V25.6199C13.5631 25.264 13.3196 24.9544 12.9739 24.8704C8.26585 23.5316 8.42425 18.5125 8.47732 15.8779C8.53033 13.2434 9.01367 11.0848 10.4505 9.63352C13.0298 7.24101 18.3447 7.59856 18.3447 7.59856C22.8333 7.6189 24.9847 9.00194 25.4831 9.46562C27.1387 10.9176 27.9825 14.3909 27.3655 19.479ZM26.7077 8.23359C26.1184 7.67838 23.7359 5.90796 18.4297 5.88392C18.4297 5.88392 12.1729 5.49728 9.12264 8.36222C7.4249 10.1007 6.82752 12.6437 6.76429 15.7987C6.70179 18.9536 6.61963 24.8637 12.1853 26.467L12.1904 26.4684L12.1875 28.914C12.1875 28.914 12.1526 29.9046 12.7885 30.1059C13.5589 30.3509 14.011 29.598 14.7464 28.7869C15.1505 28.3421 15.7072 27.688 16.1273 27.188C19.9342 27.5143 22.8617 26.7657 23.1938 26.6553C23.9627 26.3995 28.3117 25.8296 29.0189 19.9195C29.7486 13.8255 28.665 9.97208 26.7077 8.23359Z" fill="#C00D2C"/>
<path d="M23.3131 20.2166C23.3109 20.2144 22.5994 19.6075 22.252 19.3459C21.9243 19.0995 21.4016 18.7681 21.1095 18.5996C20.5855 18.3008 20.0499 18.4883 19.829 18.7819L19.3697 19.3728C19.1342 19.6723 18.7715 19.6221 18.6763 19.6025C17.9975 19.4324 17.2758 19.008 16.5374 18.2929C15.7902 17.5712 15.3382 16.8175 15.1769 16.0341L15.1652 15.9825C15.1216 15.6605 15.1754 15.5116 15.3069 15.2921L15.3317 15.2717C15.642 14.9832 16.2169 14.6322 16.2939 14.2978C16.5199 13.7172 15.5388 12.5064 15.3985 12.2927C15.3985 12.2927 14.6849 11.3479 14.4312 11.1676C14.1572 10.9394 13.7328 10.8093 13.3047 11.0724L13.2829 11.0884C12.0532 11.9206 11.6077 12.3988 11.7291 13.1125L11.7923 13.3996C12.4159 15.3655 13.6202 17.4616 15.416 19.328C17.1923 21.171 19.1138 22.275 21.0078 23.0396C21.4998 23.2031 22.0101 23.0621 22.5333 22.6152L22.5421 22.6086C22.9433 22.2336 23.2609 21.8324 23.4978 21.4029L23.5 21.3942C23.7302 20.9398 23.6525 20.5095 23.3131 20.2166Z" fill="#C00D2C"/>
<path d="M20.3645 15.9095C20.2896 15.9095 20.2271 15.8492 20.2236 15.7722C20.1989 15.2627 20.0615 14.8724 19.8151 14.6115C19.5701 14.3528 19.2031 14.2082 18.7249 14.182C18.6471 14.1776 18.5868 14.1093 18.5912 14.0293C18.5955 13.9494 18.6617 13.8884 18.7401 13.892C19.2925 13.9225 19.722 14.0969 20.0185 14.4102C20.3136 14.7227 20.4778 15.1755 20.5062 15.7576C20.5099 15.8376 20.4495 15.9052 20.3717 15.9095H20.3645Z" fill="#C00D2C"/>
<path d="M21.7658 16.391H21.7621C21.6843 16.3888 21.6225 16.3227 21.624 16.2427C21.6458 15.2645 21.3602 14.4374 20.7744 13.7833C20.4829 13.457 20.129 13.199 19.7213 13.0166C19.3129 12.8342 18.8368 12.7215 18.3077 12.6815C18.2299 12.6757 18.1711 12.6059 18.1769 12.5267C18.1827 12.4468 18.2503 12.3864 18.328 12.3922C19.4575 12.4773 20.3506 12.8791 20.9837 13.5877C21.6196 14.2978 21.9307 15.1939 21.9074 16.2492C21.9053 16.3285 21.8421 16.391 21.7658 16.391Z" fill="#C00D2C"/>
<path d="M23.2005 16.9644C23.1227 16.9644 23.0595 16.9005 23.0588 16.8205C23.0522 15.9556 22.9221 15.1736 22.6707 14.4948C22.4206 13.8211 22.0435 13.2288 21.5493 12.7346C21.0543 12.2411 20.4918 11.8646 19.8769 11.6153C19.2606 11.3653 18.5738 11.2359 17.8354 11.2309C17.7576 11.2301 17.6944 11.1647 17.6952 11.0848C17.6959 11.0048 17.7591 10.9409 17.8369 10.9409H17.8376C19.3878 10.9525 20.7025 11.486 21.7469 12.5275C22.271 13.0508 22.6707 13.678 22.9352 14.3924C23.1983 15.1024 23.3349 15.9193 23.3422 16.8183C23.343 16.8983 23.2797 16.9636 23.202 16.9644H23.2005Z" fill="#C00D2C"/>
</svg>
