<svg width="42" height="40" viewBox="0 0 42 40" fill="none" xmlns="http://www.w3.org/2000/svg">
<path d="M25.1667 18.9784H30.2084C30.4826 18.98 30.7544 18.9274 31.0082 18.8237C31.2621 18.7201 31.4929 18.5673 31.6876 18.3742L41.2292 8.83255C41.4245 8.63888 41.5795 8.40846 41.6853 8.15459C41.791 7.90072 41.8455 7.62841 41.8455 7.35339C41.8455 7.07836 41.791 6.80606 41.6853 6.55219C41.5795 6.29831 41.4245 6.06789 41.2292 5.87422L36.1876 0.832555C35.9939 0.637287 35.7635 0.482299 35.5096 0.376531C35.2557 0.270763 34.9834 0.216309 34.7084 0.216309C34.4334 0.216309 34.1611 0.270763 33.9072 0.376531C33.6533 0.482299 33.4229 0.637287 33.2293 0.832555L23.6876 10.3742C23.3069 10.7735 23.0911 11.3018 23.0834 11.8534V16.8951C23.0834 17.4476 23.3029 17.9775 23.6936 18.3682C24.0843 18.7589 24.6142 18.9784 25.1667 18.9784ZM27.2501 12.7284L34.7084 5.27005L36.7918 7.35339L29.3334 14.8117H27.2501V12.7284ZM39.7501 16.8951C39.1976 16.8951 38.6676 17.1145 38.2769 17.5052C37.8862 17.896 37.6668 18.4259 37.6668 18.9784V33.5617C37.6668 34.1143 37.4473 34.6442 37.0566 35.0349C36.6659 35.4256 36.136 35.6451 35.5834 35.6451H6.41675C5.86421 35.6451 5.33431 35.4256 4.94361 35.0349C4.55291 34.6442 4.33342 34.1143 4.33342 33.5617V13.5409L16.5834 25.8117C17.1648 26.4007 17.8574 26.8683 18.6209 27.1875C19.3844 27.5066 20.2038 27.671 21.0313 27.671C21.8589 27.671 22.6782 27.5066 23.4418 27.1875C24.2053 26.8683 24.8979 26.4007 25.4792 25.8117C25.861 25.4223 26.0748 24.8987 26.0748 24.3534C26.0748 23.8081 25.861 23.2845 25.4792 22.8951C25.2852 22.6966 25.0535 22.539 24.7977 22.4313C24.5419 22.3237 24.2672 22.2682 23.9897 22.2682C23.7121 22.2682 23.4374 22.3237 23.1816 22.4313C22.9258 22.539 22.6941 22.6966 22.5001 22.8951C22.1106 23.2768 21.5871 23.4906 21.0417 23.4906C20.4964 23.4906 19.9729 23.2768 19.5834 22.8951L7.27092 10.6034H16.8334C17.386 10.6034 17.9159 10.3839 18.3066 9.99319C18.6973 9.60249 18.9167 9.07259 18.9167 8.52005C18.9167 7.96752 18.6973 7.43762 18.3066 7.04692C17.9159 6.65621 17.386 6.43672 16.8334 6.43672H6.41675C4.75915 6.43672 3.16943 7.0952 1.99733 8.2673C0.825229 9.43941 0.166748 11.0291 0.166748 12.6867V33.5201C0.166748 35.1777 0.825229 36.7674 1.99733 37.9395C3.16943 39.1116 4.75915 39.7701 6.41675 39.7701H35.5834C37.241 39.7701 38.8307 39.1116 40.0028 37.9395C41.1749 36.7674 41.8334 35.1777 41.8334 33.5201V18.9367C41.8334 18.3842 41.6139 17.8543 41.2232 17.4636C40.8325 17.0729 40.3026 16.8534 39.7501 16.8534V16.8951Z" fill="#EE0F38"/>
</svg>
