<svg width="38" height="42" viewBox="0 0 38 42" fill="none" xmlns="http://www.w3.org/2000/svg">
<path d="M10.7083 31.4167C11.2608 31.4167 11.7907 31.1972 12.1814 30.8065C12.5721 30.4158 12.7916 29.8859 12.7916 29.3334C12.8019 29.1947 12.8019 29.0554 12.7916 28.9167C12.7688 28.7862 12.7267 28.6598 12.6666 28.5417C12.621 28.4089 12.558 28.2828 12.4791 28.1667L12.2291 27.8542C12.031 27.6645 11.7974 27.5158 11.5416 27.4167C11.1522 27.2333 10.7155 27.1751 10.2916 27.25L9.91662 27.375L9.54163 27.5625C9.43248 27.6394 9.32812 27.7229 9.22912 27.8125L8.97913 28.125C8.90028 28.2412 8.83722 28.3673 8.79162 28.5C8.73156 28.6181 8.68943 28.7445 8.66663 28.875C8.6564 29.0137 8.6564 29.153 8.66663 29.2917C8.66663 29.8442 8.88612 30.3741 9.27682 30.7648C9.66752 31.1555 10.1974 31.375 10.75 31.375L10.7083 31.4167ZM27.375 31.4167C27.9275 31.4167 28.4574 31.1972 28.8481 30.8065C29.2388 30.4158 29.4583 29.8859 29.4583 29.3334C29.4685 29.1947 29.4685 29.0554 29.4583 28.9167C29.4355 28.7862 29.3934 28.6598 29.3333 28.5417C29.2877 28.4089 29.2246 28.2828 29.1458 28.1667L28.8958 27.8542C28.6933 27.6702 28.4608 27.5222 28.2083 27.4167C27.7011 27.2083 27.1322 27.2083 26.625 27.4167C26.3725 27.5222 26.14 27.6702 25.9375 27.8542L25.6875 28.1667C25.6086 28.2828 25.5456 28.4089 25.5 28.5417C25.4399 28.6598 25.3978 28.7862 25.375 28.9167C25.3647 29.0554 25.3647 29.1947 25.375 29.3334C25.3773 29.8799 25.5942 30.4036 25.9791 30.7917C26.3483 31.1694 26.8473 31.3928 27.375 31.4167ZM21.125 6.41669H16.9583C16.4058 6.41669 15.8759 6.63618 15.4852 7.02688C15.0945 7.41758 14.875 7.94749 14.875 8.50002C14.875 9.05256 15.0945 9.58246 15.4852 9.97316C15.8759 10.3639 16.4058 10.5834 16.9583 10.5834H21.125C21.6775 10.5834 22.2074 10.3639 22.5981 9.97316C22.9888 9.58246 23.2083 9.05256 23.2083 8.50002C23.2083 7.94749 22.9888 7.41758 22.5981 7.02688C22.2074 6.63618 21.6775 6.41669 21.125 6.41669ZM31.5416 0.166687H6.54163C4.88402 0.166687 3.29431 0.825168 2.12221 1.99727C0.950106 3.16937 0.291626 4.75908 0.291626 6.41669V31.4167C0.29525 32.7062 0.697623 33.9629 1.44358 35.0147C2.18954 36.0665 3.24256 36.8619 4.45829 37.2917V39.75C4.45829 40.3026 4.67779 40.8325 5.06849 41.2232C5.45919 41.6139 5.98909 41.8334 6.54163 41.8334C7.09416 41.8334 7.62406 41.6139 8.01476 41.2232C8.40546 40.8325 8.62496 40.3026 8.62496 39.75V37.6667H29.4583V39.75C29.4583 40.3026 29.6778 40.8325 30.0685 41.2232C30.4592 41.6139 30.9891 41.8334 31.5416 41.8334C32.0942 41.8334 32.6241 41.6139 33.0148 41.2232C33.4055 40.8325 33.625 40.3026 33.625 39.75V37.2917C34.8407 36.8619 35.8937 36.0665 36.6397 35.0147C37.3856 33.9629 37.788 32.7062 37.7916 31.4167V6.41669C37.7916 4.75908 37.1331 3.16937 35.961 1.99727C34.7889 0.825168 33.1992 0.166687 31.5416 0.166687ZM33.625 31.4167C33.625 31.9692 33.4055 32.4991 33.0148 32.8898C32.6241 33.2805 32.0942 33.5 31.5416 33.5H6.54163C5.98909 33.5 5.45919 33.2805 5.06849 32.8898C4.67779 32.4991 4.45829 31.9692 4.45829 31.4167V25.1667H33.625V31.4167ZM33.625 21H4.45829V6.41669C4.45829 5.86415 4.67779 5.33425 5.06849 4.94355C5.45919 4.55285 5.98909 4.33335 6.54163 4.33335H31.5416C32.0942 4.33335 32.6241 4.55285 33.0148 4.94355C33.4055 5.33425 33.625 5.86415 33.625 6.41669V21Z" fill="#EE0F38"/>
</svg>
