<svg width="34" height="42" viewBox="0 0 34 42" fill="none" xmlns="http://www.w3.org/2000/svg">
<path d="M10.75 16.8334H12.8334C13.3859 16.8334 13.9158 16.6139 14.3065 16.2232C14.6972 15.8325 14.9167 15.3026 14.9167 14.75C14.9167 14.1975 14.6972 13.6676 14.3065 13.2769C13.9158 12.8862 13.3859 12.6667 12.8334 12.6667H10.75C10.1975 12.6667 9.6676 12.8862 9.2769 13.2769C8.8862 13.6676 8.66671 14.1975 8.66671 14.75C8.66671 15.3026 8.8862 15.8325 9.2769 16.2232C9.6676 16.6139 10.1975 16.8334 10.75 16.8334ZM10.75 21C10.1975 21 9.6676 21.2195 9.2769 21.6102C8.8862 22.0009 8.66671 22.5308 8.66671 23.0834C8.66671 23.6359 8.8862 24.1658 9.2769 24.5565C9.6676 24.9472 10.1975 25.1667 10.75 25.1667H23.25C23.8026 25.1667 24.3325 24.9472 24.7232 24.5565C25.1139 24.1658 25.3334 23.6359 25.3334 23.0834C25.3334 22.5308 25.1139 22.0009 24.7232 21.6102C24.3325 21.2195 23.8026 21 23.25 21H10.75ZM33.6667 14.625C33.645 14.4336 33.6031 14.2451 33.5417 14.0625V13.875C33.4415 13.6608 33.3079 13.4639 33.1459 13.2917L20.6459 0.791687C20.4737 0.629637 20.2767 0.496022 20.0625 0.395853C20.0004 0.387021 19.9372 0.387021 19.875 0.395853C19.6634 0.274481 19.4297 0.196571 19.1875 0.166687H6.58337C4.92577 0.166687 3.33606 0.825168 2.16396 1.99727C0.991854 3.16937 0.333374 4.75908 0.333374 6.41669V35.5834C0.333374 37.241 0.991854 38.8307 2.16396 40.0028C3.33606 41.1749 4.92577 41.8334 6.58337 41.8334H27.4167C29.0743 41.8334 30.664 41.1749 31.8361 40.0028C33.0082 38.8307 33.6667 37.241 33.6667 35.5834V14.75C33.6667 14.75 33.6667 14.75 33.6667 14.625ZM21.1667 7.27085L26.5625 12.6667H23.25C22.6975 12.6667 22.1676 12.4472 21.7769 12.0565C21.3862 11.6658 21.1667 11.1359 21.1667 10.5834V7.27085ZM29.5 35.5834C29.5 36.1359 29.2805 36.6658 28.8898 37.0565C28.4991 37.4472 27.9692 37.6667 27.4167 37.6667H6.58337C6.03084 37.6667 5.50094 37.4472 5.11023 37.0565C4.71953 36.6658 4.50004 36.1359 4.50004 35.5834V6.41669C4.50004 5.86415 4.71953 5.33425 5.11023 4.94355C5.50094 4.55285 6.03084 4.33335 6.58337 4.33335H17V10.5834C17 12.241 17.6585 13.8307 18.8306 15.0028C20.0027 16.1749 21.5924 16.8334 23.25 16.8334H29.5V35.5834ZM23.25 29.3334H10.75C10.1975 29.3334 9.6676 29.5528 9.2769 29.9435C8.8862 30.3342 8.66671 30.8642 8.66671 31.4167C8.66671 31.9692 8.8862 32.4991 9.2769 32.8898C9.6676 33.2805 10.1975 33.5 10.75 33.5H23.25C23.8026 33.5 24.3325 33.2805 24.7232 32.8898C25.1139 32.4991 25.3334 31.9692 25.3334 31.4167C25.3334 30.8642 25.1139 30.3342 24.7232 29.9435C24.3325 29.5528 23.8026 29.3334 23.25 29.3334Z" fill="#EE0F38"/>
</svg>
