<svg width="46" height="36" viewBox="0 0 46 36" fill="none" xmlns="http://www.w3.org/2000/svg">
<path d="M23.625 18.4584C24.7367 17.4961 25.6283 16.306 26.2394 14.9688C26.8505 13.6316 27.1667 12.1786 27.1667 10.7084C27.1667 7.94568 26.0692 5.29616 24.1157 3.34266C22.1622 1.38915 19.5127 0.291687 16.75 0.291687C13.9874 0.291687 11.3378 1.38915 9.38435 3.34266C7.43084 5.29616 6.33337 7.94568 6.33337 10.7084C6.33336 12.1786 6.64963 13.6316 7.26072 14.9688C7.87181 16.306 8.76342 17.4961 9.87504 18.4584C6.95867 19.7789 4.48434 21.9115 2.74792 24.6012C1.01149 27.2908 0.0864404 30.4236 0.083374 33.625C0.083374 34.1776 0.302867 34.7075 0.693568 35.0982C1.08427 35.4889 1.61417 35.7084 2.16671 35.7084C2.71924 35.7084 3.24915 35.4889 3.63985 35.0982C4.03055 34.7075 4.25004 34.1776 4.25004 33.625C4.25004 30.3098 5.567 27.1304 7.91121 24.7862C10.2554 22.442 13.4348 21.125 16.75 21.125C20.0652 21.125 23.2447 22.442 25.5889 24.7862C27.9331 27.1304 29.25 30.3098 29.25 33.625C29.25 34.1776 29.4695 34.7075 29.8602 35.0982C30.2509 35.4889 30.7808 35.7084 31.3334 35.7084C31.8859 35.7084 32.4158 35.4889 32.8065 35.0982C33.1972 34.7075 33.4167 34.1776 33.4167 33.625C33.4136 30.4236 32.4886 27.2908 30.7522 24.6012C29.0157 21.9115 26.5414 19.7789 23.625 18.4584ZM16.75 16.9584C15.5139 16.9584 14.3055 16.5918 13.2777 15.905C12.2499 15.2183 11.4488 14.2422 10.9758 13.1001C10.5027 11.9581 10.379 10.7014 10.6201 9.48904C10.8613 8.27666 11.4565 7.16302 12.3306 6.28894C13.2047 5.41486 14.3183 4.8196 15.5307 4.57845C16.7431 4.33729 17.9998 4.46106 19.1418 4.93411C20.2839 5.40716 21.26 6.20823 21.9467 7.23604C22.6335 8.26385 23 9.47222 23 10.7084C23 12.366 22.3416 13.9557 21.1695 15.1278C19.9974 16.2999 18.4076 16.9584 16.75 16.9584ZM37.0417 17.625C38.375 16.1236 39.2459 14.2689 39.5496 12.2841C39.8534 10.2992 39.577 8.26893 38.7537 6.43752C37.9305 4.60612 36.5954 3.05168 34.9094 1.96132C33.2233 0.870958 31.258 0.29115 29.25 0.291687C28.6975 0.291687 28.1676 0.511181 27.7769 0.901882C27.3862 1.29258 27.1667 1.82249 27.1667 2.37502C27.1667 2.92756 27.3862 3.45746 27.7769 3.84816C28.1676 4.23886 28.6975 4.45835 29.25 4.45835C30.9076 4.45835 32.4974 5.11684 33.6695 6.28894C34.8416 7.46104 35.5 9.05075 35.5 10.7084C35.4971 11.8026 35.2069 12.8769 34.6585 13.8238C34.1101 14.7707 33.3227 15.5571 32.375 16.1042C32.0662 16.2824 31.8082 16.5368 31.6258 16.8432C31.4434 17.1496 31.3427 17.4977 31.3334 17.8542C31.3247 18.2079 31.4062 18.5579 31.5702 18.8714C31.7342 19.1849 31.9753 19.4514 32.2709 19.6459L33.0834 20.1875L33.3542 20.3334C35.8654 21.5244 37.984 23.4083 39.4604 25.7632C40.9368 28.118 41.7095 30.8457 41.6875 33.625C41.6875 34.1776 41.907 34.7075 42.2977 35.0982C42.6884 35.4889 43.2183 35.7084 43.7709 35.7084C44.3234 35.7084 44.8533 35.4889 45.244 35.0982C45.6347 34.7075 45.8542 34.1776 45.8542 33.625C45.8712 30.428 45.0705 27.2797 43.5281 24.4793C41.9857 21.6789 39.7528 19.3194 37.0417 17.625Z" fill="#EE0F38"/>
</svg>
