<svg width="21" height="21" viewBox="0 0 21 21" fill="none" xmlns="http://www.w3.org/2000/svg">
<path d="M11.3975 20.7109H1.81869C1.20887 20.7109 0.714844 20.2166 0.714844 19.607V1.81478C0.714844 1.20504 1.20895 0.710938 1.81869 0.710938H19.6111C20.2207 0.710938 20.7148 1.20504 20.7148 1.81478V19.607C20.7148 20.2167 20.2206 20.7109 19.6111 20.7109H14.5146V12.9658H17.1142L17.5035 9.94743H14.5146V8.02037C14.5146 7.14647 14.7572 6.55094 16.0104 6.55094L17.6087 6.55024V3.85056C17.3323 3.81377 16.3835 3.73159 15.2797 3.73159C12.9752 3.73159 11.3975 5.13824 11.3975 7.72144V9.94743H8.79114V12.9658H11.3975V20.7109Z" fill="#C00D2C"/>
</svg>
