<svg width="24" height="24" viewBox="0 0 24 24" fill="none" xmlns="http://www.w3.org/2000/svg">
<path fill-rule="evenodd" clip-rule="evenodd" d="M12 3C9.55575 3 9.24926 3.01036 8.28931 3.05416C7.33137 3.09785 6.67712 3.25001 6.10466 3.47251C5.51283 3.70247 5.01092 4.01021 4.51055 4.51055C4.01021 5.01092 3.70247 5.51283 3.47251 6.10466C3.25001 6.67712 3.09785 7.33137 3.05416 8.28931C3.01036 9.24926 3 9.55575 3 12C3 14.4443 3.01036 14.7507 3.05416 15.7107C3.09785 16.6686 3.25001 17.3229 3.47251 17.8953C3.70247 18.4872 4.01021 18.9891 4.51055 19.4895C5.01092 19.9898 5.51283 20.2975 6.10466 20.5275C6.67712 20.75 7.33137 20.9021 8.28931 20.9458C9.24926 20.9896 9.55575 21 12 21C14.4443 21 14.7507 20.9896 15.7107 20.9458C16.6686 20.9021 17.3229 20.75 17.8953 20.5275C18.4872 20.2975 18.9891 19.9898 19.4895 19.4895C19.9898 18.9891 20.2975 18.4872 20.5275 17.8953C20.75 17.3229 20.9021 16.6686 20.9458 15.7107C20.9896 14.7507 21 14.4443 21 12C21 9.55575 20.9896 9.24926 20.9458 8.28931C20.9021 7.33137 20.75 6.67712 20.5275 6.10466C20.2975 5.51283 19.9898 5.01092 19.4895 4.51055C18.9891 4.01021 18.4872 3.70247 17.8953 3.47251C17.3229 3.25001 16.6686 3.09785 15.7107 3.05416C14.7507 3.01036 14.4443 3 12 3ZM12 4.62158C14.4031 4.62158 14.6877 4.63076 15.6367 4.67406C16.5142 4.71408 16.9908 4.86069 17.3079 4.98395C17.728 5.14721 18.0278 5.34224 18.3427 5.65719C18.6577 5.97211 18.8527 6.27192 19.016 6.69202C19.1392 7.00916 19.2859 7.4857 19.3259 8.36319C19.3692 9.3122 19.3783 9.59687 19.3783 12C19.3783 14.4031 19.3692 14.6877 19.3259 15.6367C19.2859 16.5142 19.1392 16.9908 19.016 17.3079C18.8527 17.728 18.6577 18.0278 18.3427 18.3427C18.0278 18.6577 17.728 18.8527 17.3079 19.016C16.9908 19.1392 16.5142 19.2859 15.6367 19.3259C14.6879 19.3692 14.4032 19.3783 12 19.3783C9.59669 19.3783 9.3121 19.3692 8.36319 19.3259C7.4857 19.2859 7.00916 19.1392 6.69202 19.016C6.27192 18.8527 5.97211 18.6577 5.65719 18.3427C5.34227 18.0278 5.14721 17.728 4.98395 17.3079C4.86069 16.9908 4.71408 16.5142 4.67406 15.6367C4.63076 14.6877 4.62158 14.4031 4.62158 12C4.62158 9.59687 4.63076 9.3122 4.67406 8.36319C4.71408 7.4857 4.86069 7.00916 4.98395 6.69202C5.14721 6.27192 5.34224 5.97211 5.65719 5.65719C5.97211 5.34224 6.27192 5.14721 6.69202 4.98395C7.00916 4.86069 7.4857 4.71408 8.36319 4.67406C9.3122 4.63076 9.59687 4.62158 12 4.62158ZM7.37842 12.0001C7.37842 9.44757 9.44757 7.37842 12.0001 7.37842C14.5525 7.37842 16.6217 9.44757 16.6217 12.0001C16.6217 14.5525 14.5525 16.6217 12.0001 16.6217C9.44757 16.6217 7.37842 14.5525 7.37842 12.0001ZM12 15C10.3431 15 9 13.6569 9 12C9 10.3431 10.3431 9 12 9C13.6569 9 15 10.3431 15 12C15 13.6569 13.6569 15 12 15ZM16.8042 8.27573C17.4007 8.27573 17.8842 7.79222 17.8842 7.19574C17.8842 6.59927 17.4007 6.11572 16.8042 6.11572C16.2078 6.11572 15.7242 6.59927 15.7242 7.19574C15.7242 7.79222 16.2078 8.27573 16.8042 8.27573Z" fill="#303E54"/>
</svg>
