<svg width="69" height="45" viewBox="0 0 69 45" fill="none" xmlns="http://www.w3.org/2000/svg">
<path d="M54.9504 33.6006C55.0935 33.6006 55.2326 33.5528 55.3452 33.4644C56.34 32.6835 57.5436 32.2709 58.8259 32.2709C60.1054 32.2709 61.309 32.6835 62.3068 33.4647C62.4194 33.5528 62.5581 33.6008 62.7011 33.6008H67.2205C67.5737 33.6008 67.8601 33.3144 67.8601 32.9611V0.639564C67.8601 0.286426 67.5737 0 67.2205 0H19.1997C18.8464 0 18.56 0.286426 18.56 0.639564V31.8224C18.56 32.115 18.7587 32.3704 19.0421 32.4426C19.5214 32.564 19.9767 32.7436 20.3957 32.9759C20.4875 33.0269 20.5905 33.0546 20.6959 33.056L54.9402 33.6006C54.9435 33.6006 54.947 33.6006 54.9504 33.6006ZM66.581 32.3215H62.9157C62.3673 31.9204 61.7648 31.6036 61.1217 31.3791C60.3858 31.1218 59.6134 30.9917 58.8259 30.9917C58.0369 30.9917 57.2637 31.1218 56.5278 31.3791C55.8866 31.603 55.2862 31.9184 54.7402 32.3181L20.872 31.7797C20.5433 31.6073 20.1975 31.4613 19.8391 31.3431V1.27895H66.581V32.3215Z" fill="#303E54"/>
<path d="M0.639673 38.4626H11.3949C11.7481 38.4626 12.0347 38.1766 12.0347 37.8232C12.0347 34.7617 14.5546 32.2714 17.6526 32.2714C18.0779 32.2714 18.5081 32.319 18.9308 32.4136C19.1196 32.4556 19.3171 32.4102 19.4687 32.2897C19.6198 32.1692 19.7086 31.9865 19.7096 31.7933L19.839 10.2432C19.84 10.0668 19.7684 9.8977 19.6403 9.77593C19.5123 9.65433 19.3401 9.59098 19.1636 9.60086L5.37358 10.3728C5.1281 10.3865 4.91244 10.5399 4.81838 10.7672L0.283007 21.7409C0.252123 21.8154 0.235708 21.8952 0.234825 21.9757L0.00028801 37.8139C-0.00235939 37.9851 0.0638199 38.1503 0.184357 38.2724C0.304539 38.394 0.468664 38.4626 0.639673 38.4626ZM10.7854 37.1835H1.28894L1.51201 22.1165L5.84708 11.6274L18.5561 10.9158L18.4351 31.036C18.1744 31.0067 17.913 30.9922 17.6526 30.9922C16.7229 30.9922 15.8203 31.1724 14.9706 31.5284C14.1494 31.8723 13.4117 32.364 12.7784 32.9909C12.1446 33.6181 11.6469 34.3485 11.2989 35.1621C11.0224 35.8089 10.8505 36.4866 10.7854 37.1835Z" fill="#303E54"/>
<path d="M23.9103 38.4624H52.5681C52.9212 38.4624 53.2077 38.1763 53.2077 37.823C53.2077 36.1122 53.9863 34.524 55.3438 33.4659C55.5575 33.2993 55.6431 33.0155 55.557 32.7582C55.4708 32.5012 55.2319 32.3261 54.9606 32.3217L20.7162 31.7775C20.7127 31.7775 20.7091 31.7775 20.7058 31.7775C20.4164 31.7775 20.1629 31.9719 20.0879 32.252C20.0124 32.5356 20.1395 32.8346 20.3966 32.9765C22.1695 33.9568 23.2708 35.8136 23.2708 37.8228C23.2709 38.1763 23.557 38.4624 23.9103 38.4624ZM51.9582 37.1832H24.5195C24.4235 36.1694 24.1004 35.1876 23.5706 34.3126C23.302 33.8684 22.9836 33.4574 22.624 33.0873L53.4189 33.5765C52.5907 34.6064 52.0822 35.8529 51.9582 37.1832ZM65.0834 38.4624H68.3604C68.7136 38.4624 69 38.1763 69 37.823V32.9611C69 32.6082 68.7136 32.3217 68.3604 32.3217H62.7011C62.428 32.3217 62.1852 32.4949 62.0963 32.7529C62.0075 33.0111 62.0924 33.2973 62.3075 33.4653C63.6652 34.5256 64.444 36.1139 64.444 37.8228C64.4438 38.1763 64.7302 38.4624 65.0834 38.4624ZM67.7209 37.1832H65.6933C65.5705 35.8642 65.0684 34.6271 64.2511 33.6009H67.7209V37.1832Z" fill="#303E54"/>
<path d="M58.8261 44.6533C59.7556 44.6533 60.6581 44.4729 61.5082 44.1167C62.3294 43.7731 63.0669 43.2813 63.7003 42.6548C64.334 42.0276 64.8319 41.2973 65.1797 40.4839C65.5403 39.6409 65.7233 38.7457 65.7233 37.8235C65.7233 36.9012 65.5404 36.0057 65.1797 35.1623C64.8317 34.3489 64.334 33.6183 63.7003 32.9911C63.0669 32.3642 62.3294 31.8725 61.5082 31.5286C60.6581 31.1726 59.7558 30.9924 58.8261 30.9924C57.8962 30.9924 56.9938 31.1726 56.1437 31.5286C55.3224 31.8725 54.5849 32.3642 53.9517 32.9911C53.3179 33.6183 52.8199 34.3487 52.4721 35.1623C52.1115 36.0057 51.9287 36.9012 51.9287 37.8235C51.9287 38.7457 52.1115 39.6409 52.4721 40.4839C52.8199 41.2971 53.3178 42.0276 53.9517 42.6548C54.5851 43.2813 55.3226 43.7731 56.1437 44.1167C56.9938 44.4727 57.8962 44.6533 58.8261 44.6533ZM58.8261 32.2716C61.9236 32.2716 64.444 34.7619 64.444 37.8235C64.444 40.884 61.9236 43.3741 58.8261 43.3741C55.7283 43.3741 53.2078 40.884 53.2078 37.8235C53.2078 34.7619 55.7283 32.2716 58.8261 32.2716Z" fill="#303E54"/>
<path d="M17.6525 44.6533C18.5824 44.6533 19.4848 44.4729 20.3349 44.1167C21.156 43.7731 21.8934 43.2813 22.5269 42.6548C23.1605 42.0276 23.6585 41.2973 24.0065 40.4839C24.3669 39.6409 24.5499 38.7457 24.5499 37.8235C24.5499 36.9012 24.3669 36.0057 24.0065 35.1623C23.6585 34.3489 23.1609 33.6183 22.5269 32.9911C21.8934 32.3642 21.156 31.8725 20.3349 31.5286C19.4849 31.1726 18.5822 30.9924 17.6525 30.9924C16.7228 30.9924 15.8203 31.1726 14.9706 31.5286C14.1494 31.8725 13.4117 32.3642 12.7783 32.9911C12.1446 33.6183 11.6469 34.3487 11.2989 35.1623C10.9383 36.0057 10.7555 36.9012 10.7555 37.8235C10.7555 38.7457 10.9383 39.6409 11.2989 40.4839C11.6469 41.2971 12.1446 42.0276 12.7783 42.6548C13.4119 43.2813 14.1494 43.7731 14.9706 44.1167C15.8203 44.4727 16.7228 44.6533 17.6525 44.6533ZM17.6525 32.2716C20.7505 32.2716 23.2708 34.7619 23.2708 37.8235C23.2708 40.884 20.7505 43.3741 17.6525 43.3741C14.5546 43.3741 12.0346 40.884 12.0346 37.8235C12.0346 34.7619 14.5546 32.2716 17.6525 32.2716Z" fill="#303E54"/>
<path opacity="0.4" d="M0.825508 33.0794H6.32852C6.68183 33.0794 6.96826 32.7932 6.96826 32.44C6.96826 32.0867 6.68183 31.8003 6.32852 31.8003H0.825508C0.472371 31.8003 0.185766 32.0867 0.185766 32.44C0.185766 32.7932 0.472371 33.0794 0.825508 33.0794Z" fill="#303E54"/>
<path d="M17.6527 41.0335C19.438 41.0335 20.8903 39.5932 20.8903 37.8231C20.8903 36.0522 19.438 34.6112 17.6527 34.6112C16.7887 34.6112 15.9763 34.9446 15.3652 35.5499C14.7526 36.1568 14.4154 36.964 14.4154 37.8231C14.4154 38.6817 14.7526 39.4884 15.3652 40.095C15.9763 40.7001 16.7887 41.0335 17.6527 41.0335ZM17.6527 35.8902C18.7326 35.8902 19.6111 36.7572 19.6111 37.823C19.6111 38.888 18.7326 39.7545 17.6527 39.7545C16.573 39.7545 15.6945 38.888 15.6945 37.823C15.6945 36.7574 16.573 35.8902 17.6527 35.8902Z" fill="#FF2D46"/>
<path d="M58.8258 41.0335C60.6109 41.0335 62.063 39.5932 62.063 37.8231C62.063 36.0522 60.6107 34.6112 58.8258 34.6112C57.9616 34.6112 57.1491 34.9446 56.5381 35.5499C55.9255 36.1568 55.5883 36.964 55.5883 37.8231C55.5883 38.6817 55.9255 39.4884 56.5381 40.095C57.1492 40.7001 57.9616 41.0335 58.8258 41.0335ZM58.8258 35.8902C59.9055 35.8902 60.7839 36.7572 60.7839 37.823C60.7839 38.888 59.9053 39.7545 58.8258 39.7545C57.7457 39.7545 56.8674 38.888 56.8674 37.823C56.8674 36.7574 57.7457 35.8902 58.8258 35.8902Z" fill="#FF2D46"/>
<path d="M4.42316 23.5782C4.43604 23.5782 4.44892 23.5777 4.46198 23.577C4.46234 23.577 4.46233 23.577 4.46251 23.5768C4.52869 23.5729 4.59205 23.5586 4.65135 23.536C4.71506 23.5118 4.77559 23.4772 4.83065 23.4317L15.5538 14.5803C15.7641 14.4067 15.8411 14.1188 15.7456 13.8633C15.6523 13.6129 15.4129 13.4475 15.1466 13.4475C15.1413 13.4475 15.1359 13.4475 15.1306 13.4477L7.95118 13.6282C7.6974 13.6348 7.47133 13.7906 7.37497 14.0257L3.84042 22.6744C3.80371 22.7549 3.78359 22.8446 3.78359 22.9384C3.78359 23.2911 4.06879 23.5773 4.42122 23.5782C4.4221 23.5782 4.42263 23.5782 4.42316 23.5782ZM13.3107 14.7729L5.9776 20.8262L8.40103 14.8962L13.3107 14.7729Z" fill="#FF2D46"/>
<path d="M67.2205 4.68008C67.5737 4.68008 67.8601 4.39366 67.8601 4.04052V0.639566C67.8601 0.286429 67.5737 0 67.2205 0H19.1997C18.8464 0 18.56 0.286429 18.56 0.639566V3.91786C18.56 4.26359 18.8347 4.54666 19.1803 4.55725C19.6721 4.57208 20.1742 4.59273 20.6728 4.61867C20.6836 4.6192 20.6943 4.61955 20.7051 4.61955C22.8618 4.62326 25.037 4.62714 27.2232 4.6312C40.6096 4.65538 54.4517 4.68008 67.2205 4.68008ZM66.581 1.27913V3.40095C53.9914 3.40025 40.3883 3.37572 27.2255 3.35207C25.0444 3.34819 22.8751 3.3443 20.7233 3.3406C20.4289 3.32542 20.1331 3.31183 19.8391 3.30036V1.27931H66.581V1.27913Z" fill="#303E54"/>
<path opacity="0.4" d="M27.6914 23.3708H67.2205C67.5737 23.3708 67.8601 23.0844 67.8601 22.7314C67.8601 22.3781 67.5737 22.0917 67.2205 22.0917H27.6914C27.3381 22.0917 27.052 22.3781 27.052 22.7314C27.0518 23.0844 27.3381 23.3708 27.6914 23.3708Z" fill="#303E54"/>
<path opacity="0.4" d="M19.1997 8.07552H44.8714C45.2246 8.07552 45.511 7.78926 45.511 7.43595C45.511 7.08281 45.2246 6.79639 44.8714 6.79639H19.1999C18.8466 6.79639 18.5601 7.08281 18.5601 7.43595C18.56 7.78926 18.8464 8.07552 19.1997 8.07552Z" fill="#303E54"/>
</svg>
