<svg width="41" height="34" viewBox="0 0 41 34" fill="none" xmlns="http://www.w3.org/2000/svg">
<path d="M22.6 17.44C23.6672 16.5163 24.5231 15.3738 25.1097 14.09C25.6964 12.8063 26 11.4114 26 10C26 7.34784 24.9464 4.8043 23.0711 2.92893C21.1957 1.05357 18.6522 0 16 0C13.3478 0 10.8043 1.05357 8.92893 2.92893C7.05357 4.8043 6 7.34784 6 10C5.99998 11.4114 6.3036 12.8063 6.89025 14.09C7.4769 15.3738 8.33284 16.5163 9.4 17.44C6.60028 18.7078 4.22493 20.7551 2.55796 23.3371C0.89099 25.9191 0.00294371 28.9266 0 32C0 32.5304 0.210714 33.0391 0.585786 33.4142C0.960859 33.7893 1.46957 34 2 34C2.53043 34 3.03914 33.7893 3.41421 33.4142C3.78929 33.0391 4 32.5304 4 32C4 28.8174 5.26428 25.7652 7.51472 23.5147C9.76516 21.2643 12.8174 20 16 20C19.1826 20 22.2348 21.2643 24.4853 23.5147C26.7357 25.7652 28 28.8174 28 32C28 32.5304 28.2107 33.0391 28.5858 33.4142C28.9609 33.7893 29.4696 34 30 34C30.5304 34 31.0391 33.7893 31.4142 33.4142C31.7893 33.0391 32 32.5304 32 32C31.9971 28.9266 31.109 25.9191 29.442 23.3371C27.7751 20.7551 25.3997 18.7078 22.6 17.44ZM16 16C14.8133 16 13.6533 15.6481 12.6666 14.9888C11.6799 14.3295 10.9108 13.3925 10.4567 12.2961C10.0026 11.1997 9.88378 9.99335 10.1153 8.82946C10.3468 7.66557 10.9182 6.59648 11.7574 5.75736C12.5965 4.91824 13.6656 4.3468 14.8295 4.11529C15.9933 3.88378 17.1997 4.0026 18.2961 4.45672C19.3925 4.91085 20.3295 5.67988 20.9888 6.66658C21.6481 7.65327 22 8.81331 22 10C22 11.5913 21.3679 13.1174 20.2426 14.2426C19.1174 15.3679 17.5913 16 16 16ZM39.42 11.26C39.2341 11.0725 39.0129 10.9238 38.7692 10.8222C38.5254 10.7207 38.264 10.6684 38 10.6684C37.736 10.6684 37.4746 10.7207 37.2308 10.8222C36.9871 10.9238 36.7659 11.0725 36.58 11.26L32.58 15.26L31.34 14C31.1541 13.8125 30.9329 13.6638 30.6892 13.5622C30.4454 13.4607 30.184 13.4084 29.92 13.4084C29.656 13.4084 29.3946 13.4607 29.1508 13.5622C28.9071 13.6638 28.6859 13.8125 28.5 14C28.1275 14.3747 27.9184 14.8816 27.9184 15.41C27.9184 15.9384 28.1275 16.4453 28.5 16.82L31.18 19.5C31.5547 19.8725 32.0616 20.0816 32.59 20.0816C33.1184 20.0816 33.6253 19.8725 34 19.5L39.34 14.16C39.5419 13.9786 39.7048 13.7581 39.8188 13.5118C39.9327 13.2654 39.9954 12.9985 40.0028 12.7272C40.0103 12.4559 39.9625 12.1859 39.8623 11.9337C39.7621 11.6814 39.6116 11.4522 39.42 11.26Z" fill="#303E54"/>
</svg>
