<svg width="48" height="48" viewBox="0 0 48 48" fill="none" xmlns="http://www.w3.org/2000/svg">
<path d="M24 4C21.8989 4 19.8183 4.40236 17.8771 5.1841C15.9359 5.96584 14.172 7.11165 12.6863 8.55612C9.68571 11.4733 8 15.43 8 19.5556V30.4444C8 30.857 8.16857 31.2527 8.46863 31.5444C8.76869 31.8361 9.17565 32 9.6 32H14.4C15.673 32 16.8939 31.5083 17.7941 30.6332C18.6943 29.758 19.2 28.571 19.2 27.3333V24.2222C19.2 22.9845 18.6943 21.7976 17.7941 20.9224C16.8939 20.0472 15.673 19.5556 14.4 19.5556H11.2C11.2 16.2551 12.5486 13.0898 14.949 10.756C17.3495 8.42222 20.6052 7.11111 24 7.11111C27.3948 7.11111 30.6505 8.42222 33.051 10.756C35.4514 13.0898 36.8 16.2551 36.8 19.5556H33.6C32.327 19.5556 31.1061 20.0472 30.2059 20.9224C29.3057 21.7976 28.8 22.9845 28.8 24.2222V27.3333C28.8 28.571 29.3057 29.758 30.2059 30.6332C31.1061 31.5083 32.327 32 33.6 32H38.4C38.8243 32 39.2313 31.8361 39.5314 31.5444C39.8314 31.2527 40 30.857 40 30.4444V19.5556C40 15.43 38.3143 11.4733 35.3137 8.55612C32.3131 5.63888 28.2435 4 24 4ZM14.4 22.6667C14.8243 22.6667 15.2313 22.8306 15.5314 23.1223C15.8314 23.414 16 23.8097 16 24.2222V27.3333C16 27.7459 15.8314 28.1416 15.5314 28.4333C15.2313 28.725 14.8243 28.8889 14.4 28.8889H11.2V22.6667H14.4ZM36.8 28.8889H33.6C33.1757 28.8889 32.7687 28.725 32.4686 28.4333C32.1686 28.1416 32 27.7459 32 27.3333V24.2222C32 23.8097 32.1686 23.414 32.4686 23.1223C32.7687 22.8306 33.1757 22.6667 33.6 22.6667H36.8V28.8889Z" fill="#303647"/>
<path d="M33.051 36.7882C30.6505 38.5886 27.3948 39.6 24 39.6V42C28.2435 42 32.3131 40.7357 35.3137 38.4853C38.3143 36.2348 40 33.1826 40 30H36.8C36.8 32.5461 35.4514 34.9879 33.051 36.7882Z" fill="#303647"/>
<rect x="22" y="38" width="6" height="6" rx="1" fill="#303647"/>
</svg>
