<svg width="36" height="40" viewBox="0 0 36 40" fill="none" xmlns="http://www.w3.org/2000/svg">
<path d="M10 30C10.5304 30 11.0391 29.7893 11.4142 29.4142C11.7893 29.0391 12 28.5304 12 28C12.0098 27.8668 12.0098 27.7332 12 27.6C11.9781 27.4747 11.9377 27.3534 11.88 27.24C11.8362 27.1126 11.7757 26.9915 11.7 26.88L11.46 26.58C11.2698 26.3979 11.0455 26.2552 10.8 26.16C10.4261 25.984 10.0069 25.9281 9.6 26L9.24 26.12L8.88 26.3C8.77522 26.3738 8.67504 26.454 8.58 26.54L8.34 26.84C8.26431 26.9515 8.20378 27.0726 8.16 27.2C8.10233 27.3134 8.06189 27.4347 8.04 27.56C8.03018 27.6932 8.03018 27.8268 8.04 27.96C8.04 28.4904 8.25071 28.9991 8.62579 29.3742C9.00086 29.7493 9.50957 29.96 10.04 29.96L10 30ZM26 30C26.5304 30 27.0391 29.7893 27.4142 29.4142C27.7893 29.0391 28 28.5304 28 28C28.0098 27.8668 28.0098 27.7332 28 27.6C27.9781 27.4747 27.9377 27.3534 27.88 27.24C27.8362 27.1126 27.7757 26.9915 27.7 26.88L27.46 26.58C27.2656 26.4033 27.0424 26.2613 26.8 26.16C26.3131 25.96 25.7669 25.96 25.28 26.16C25.0376 26.2613 24.8144 26.4033 24.62 26.58L24.38 26.88C24.3043 26.9915 24.2438 27.1126 24.2 27.24C24.1423 27.3534 24.1019 27.4747 24.08 27.6C24.0702 27.7332 24.0702 27.8668 24.08 28C24.0822 28.5247 24.2905 29.0275 24.66 29.4C25.0145 29.7626 25.4934 29.9771 26 30ZM20 6H16C15.4696 6 14.9609 6.21071 14.5858 6.58579C14.2107 6.96086 14 7.46957 14 8C14 8.53043 14.2107 9.03914 14.5858 9.41421C14.9609 9.78929 15.4696 10 16 10H20C20.5304 10 21.0391 9.78929 21.4142 9.41421C21.7893 9.03914 22 8.53043 22 8C22 7.46957 21.7893 6.96086 21.4142 6.58579C21.0391 6.21071 20.5304 6 20 6ZM30 0H6C4.4087 0 2.88258 0.632141 1.75736 1.75736C0.632141 2.88258 0 4.4087 0 6V30C0.00347902 31.2379 0.389757 32.4444 1.10588 33.4541C1.822 34.4639 2.8329 35.2274 4 35.64V38C4 38.5304 4.21071 39.0391 4.58579 39.4142C4.96086 39.7893 5.46957 40 6 40C6.53043 40 7.03914 39.7893 7.41421 39.4142C7.78929 39.0391 8 38.5304 8 38V36H28V38C28 38.5304 28.2107 39.0391 28.5858 39.4142C28.9609 39.7893 29.4696 40 30 40C30.5304 40 31.0391 39.7893 31.4142 39.4142C31.7893 39.0391 32 38.5304 32 38V35.64C33.1671 35.2274 34.178 34.4639 34.8941 33.4541C35.6102 32.4444 35.9965 31.2379 36 30V6C36 4.4087 35.3679 2.88258 34.2426 1.75736C33.1174 0.632141 31.5913 0 30 0ZM32 30C32 30.5304 31.7893 31.0391 31.4142 31.4142C31.0391 31.7893 30.5304 32 30 32H6C5.46957 32 4.96086 31.7893 4.58579 31.4142C4.21071 31.0391 4 30.5304 4 30V24H32V30ZM32 20H4V6C4 5.46957 4.21071 4.96086 4.58579 4.58579C4.96086 4.21071 5.46957 4 6 4H30C30.5304 4 31.0391 4.21071 31.4142 4.58579C31.7893 4.96086 32 5.46957 32 6V20Z" fill="#303E54"/>
</svg>
